#N canvas 0 22 1057 624 10;
#X obj 71 391 dac~;
#X obj 69 333 *~ 0;
#X msg 140 283 0;
#X msg 172 283 1;
#X obj 68 284 osc~ 100;
#X obj 68 230 random 1000;
#X obj 68 186 bng 15 250 50 0 empty empty empty 17 7 0 10 -262144 -1
-1;
#X msg 66 63 1;
#X obj 68 123 metro 100;
#X msg 111 63 0;
#X obj 215 388 dac~;
#X obj 213 330 *~ 0;
#X msg 317 355 0;
#X msg 317 332 1;
#X obj 212 183 bng 15 250 50 0 empty empty empty 17 7 0 10 -262144
-1 -1;
#X msg 210 60 1;
#X obj 214 122 metro 100;
#X msg 255 60 0;
#X obj 212 281 phasor~ 500;
#X floatatom 322 124 0 0 0 0 - - -;
#X obj 213 227 random 200;
#X floatatom 318 230 0 0 0 0 - - -;
#X text 324 124;
#X floatatom 317 284 0 0 0 0 - - -;
#X connect 1 0 0 0;
#X connect 1 0 0 1;
#X connect 2 0 1 1;
#X connect 3 0 1 1;
#X connect 4 0 1 0;
#X connect 5 0 4 0;
#X connect 6 0 5 0;
#X connect 7 0 8 0;
#X connect 8 0 6 0;
#X connect 9 0 8 0;
#X connect 11 0 10 0;
#X connect 11 0 10 1;
#X connect 12 0 11 1;
#X connect 13 0 11 1;
#X connect 14 0 20 0;
#X connect 15 0 16 0;
#X connect 16 0 14 0;
#X connect 17 0 16 0;
#X connect 18 0 11 0;
#X connect 19 0 16 1;
#X connect 20 0 18 0;
#X connect 21 0 20 1;
#X connect 23 0 18 1;
