#N canvas 0 22 1440 804 10;
#X obj 804 881 dac~;
#X obj 802 823 *~ 0;
#X obj 801 774 phasor~ 500;
#X floatatom 535 799 0 0 0 0 - - -;
#X obj 999 877 dac~;
#X obj 997 819 *~ 0;
#X obj 996 770 phasor~ 500;
#X floatatom 572 801 0 0 0 0 - - -;
#X obj 867 538 sel 0 1 2 3 4 5 6 7;
#X floatatom 409 256 10 0 0 0 - - -;
#X obj 860 597 bng 15 250 50 0 empty empty empty 17 7 0 10 -262144
-1 -1;
#X obj 891 598 bng 15 250 50 0 empty empty empty 17 7 0 10 -262144
-1 -1;
#X obj 921 599 bng 15 250 50 0 empty empty empty 17 7 0 10 -262144
-1 -1;
#X obj 951 599 bng 15 250 50 0 empty empty empty 17 7 0 10 -262144
-1 -1;
#X obj 986 599 bng 15 250 50 0 empty empty empty 17 7 0 10 -262144
-1 -1;
#X obj 1026 599 bng 15 250 50 0 empty empty empty 17 7 0 10 -262144
-1 -1;
#X obj 887 690 tgl 15 0 empty empty empty 17 7 0 10 -262144 -1 -1 0
1;
#X obj 911 691 tgl 15 0 empty empty empty 17 7 0 10 -262144 -1 -1 0
1;
#X obj 935 691 tgl 15 0 empty empty empty 17 7 0 10 -262144 -1 -1 0
1;
#X obj 960 691 tgl 15 0 empty empty empty 17 7 0 10 -262144 -1 -1 0
1;
#X obj 983 692 tgl 15 0 empty empty empty 17 7 0 10 -262144 -1 -1 0
1;
#X obj 1166 880 dac~;
#X obj 1164 822 *~ 0;
#X obj 1163 773 phasor~ 500;
#X floatatom 610 800 0 0 0 0 - - -;
#X obj 1339 879 dac~;
#X obj 1337 821 *~ 0;
#X obj 1336 772 phasor~ 500;
#X floatatom 653 799 0 0 0 0 - - -;
#X obj 1438 881 dac~;
#X obj 1436 823 *~ 0;
#X obj 1435 774 phasor~ 500;
#X floatatom 694 798 0 0 0 0 - - -;
#X obj 333 57 metro 300;
#X obj 333 34 tgl 15 0 empty empty empty 0 -6 0 8 -262144 -1 -1 0 1
;
#X floatatom 410 180 10 0 0 0 - - -;
#X text 480 181 number of bangs;
#X text 588 66 change direction;
#X obj 421 57 bng 15 250 50 0 empty empty empty 0 -6 0 8 -262144 -1
-1;
#X text 283 34 start;
#X obj 432 87 bng 15 250 50 0 empty empty empty 0 -6 0 8 -262144 -1
-1;
#X text 455 89 reset to minimum \, wait for next bang before output
;
#X obj 443 113 bng 15 250 50 0 empty empty empty 0 -6 0 8 -262144 -1
-1;
#X text 467 114 reset and output imediately;
#X floatatom 391 36 5 0 0 0 - - -;
#X obj 454 136 bng 15 250 50 0 empty empty empty 0 -6 0 8 -262144 -1
-1;
#X obj 410 154 counter;
#X text 476 138 reset to max \, wait for next bang before output *
;
#X obj 669 589 bng 15 250 50 0 empty empty empty 17 7 0 10 -262144
-1 -1;
#X obj 514 691 random 1000;
#X obj 596 691 random 1000;
#X obj 677 691 random 1000;
#X obj 760 690 random 1000;
#X obj 784 724 random 1000;
#X obj 802 1258 dac~;
#X obj 800 1200 *~ 0;
#X obj 799 1151 phasor~ 500;
#X floatatom 533 1176 0 0 0 0 - - -;
#X obj 997 1254 dac~;
#X obj 995 1196 *~ 0;
#X obj 994 1147 phasor~ 500;
#X floatatom 570 1178 0 0 0 0 - - -;
#X obj 858 974 bng 15 250 50 0 empty empty empty 17 7 0 10 -262144
-1 -1;
#X obj 889 975 bng 15 250 50 0 empty empty empty 17 7 0 10 -262144
-1 -1;
#X obj 919 976 bng 15 250 50 0 empty empty empty 17 7 0 10 -262144
-1 -1;
#X obj 949 976 bng 15 250 50 0 empty empty empty 17 7 0 10 -262144
-1 -1;
#X obj 984 976 bng 15 250 50 0 empty empty empty 17 7 0 10 -262144
-1 -1;
#X obj 1024 976 bng 15 250 50 0 empty empty empty 17 7 0 10 -262144
-1 -1;
#X obj 885 1067 tgl 15 0 empty empty empty 17 7 0 10 -262144 -1 -1
0 1;
#X obj 909 1068 tgl 15 0 empty empty empty 17 7 0 10 -262144 -1 -1
0 1;
#X obj 933 1068 tgl 15 0 empty empty empty 17 7 0 10 -262144 -1 -1
0 1;
#X obj 958 1068 tgl 15 0 empty empty empty 17 7 0 10 -262144 -1 -1
0 1;
#X obj 981 1069 tgl 15 0 empty empty empty 17 7 0 10 -262144 -1 -1
0 1;
#X obj 1164 1257 dac~;
#X obj 1162 1199 *~ 0;
#X obj 1161 1150 phasor~ 500;
#X floatatom 608 1177 0 0 0 0 - - -;
#X obj 1337 1256 dac~;
#X obj 1335 1198 *~ 0;
#X obj 1334 1149 phasor~ 500;
#X floatatom 651 1176 0 0 0 0 - - -;
#X obj 1436 1258 dac~;
#X obj 1434 1200 *~ 0;
#X obj 1433 1151 phasor~ 500;
#X floatatom 692 1175 0 0 0 0 - - -;
#X obj 667 966 bng 15 250 50 0 empty empty empty 17 7 0 10 -262144
-1 -1;
#X obj 512 1068 random 1000;
#X obj 594 1068 random 1000;
#X obj 675 1068 random 1000;
#X obj 758 1067 random 1000;
#X obj 782 1101 random 1000;
#X obj 409 227 % 16;
#X obj 865 915 sel 8 9 10 11 12 13 14 15;
#X obj 891 200 sel 0 1 2 3 4 5 6 7;
#X obj 874 341 bng 15 250 50 0 empty empty empty 17 7 0 10 -262144
-1 -1;
#X obj 905 342 bng 15 250 50 0 empty empty empty 17 7 0 10 -262144
-1 -1;
#X obj 935 343 bng 15 250 50 0 empty empty empty 17 7 0 10 -262144
-1 -1;
#X obj 965 343 bng 15 250 50 0 empty empty empty 17 7 0 10 -262144
-1 -1;
#X obj 1000 343 bng 15 250 50 0 empty empty empty 17 7 0 10 -262144
-1 -1;
#X obj 1032 344 bng 15 250 50 0 empty empty empty 17 7 0 10 -262144
-1 -1;
#X obj 876 379 bng 15 250 50 0 empty empty empty 17 7 0 10 -262144
-1 -1;
#X obj 907 380 bng 15 250 50 0 empty empty empty 17 7 0 10 -262144
-1 -1;
#X obj 937 381 bng 15 250 50 0 empty empty empty 17 7 0 10 -262144
-1 -1;
#X obj 967 381 bng 15 250 50 0 empty empty empty 17 7 0 10 -262144
-1 -1;
#X obj 1002 381 bng 15 250 50 0 empty empty empty 17 7 0 10 -262144
-1 -1;
#X obj 1034 382 bng 15 250 50 0 empty empty empty 17 7 0 10 -262144
-1 -1;
#X obj 876 419 bng 15 250 50 0 empty empty empty 17 7 0 10 -262144
-1 -1;
#X obj 907 420 bng 15 250 50 0 empty empty empty 17 7 0 10 -262144
-1 -1;
#X obj 937 421 bng 15 250 50 0 empty empty empty 17 7 0 10 -262144
-1 -1;
#X obj 967 421 bng 15 250 50 0 empty empty empty 17 7 0 10 -262144
-1 -1;
#X obj 1002 421 bng 15 250 50 0 empty empty empty 17 7 0 10 -262144
-1 -1;
#X obj 1034 422 bng 15 250 50 0 empty empty empty 17 7 0 10 -262144
-1 -1;
#X obj 721 275 hradio 15 1 0 8 hradio-help-rcv empty empty 0 -8 0 10
-262144 -1 -1 7;
#X connect 1 0 0 0;
#X connect 1 0 0 1;
#X connect 2 0 1 0;
#X connect 3 0 2 0;
#X connect 5 0 4 0;
#X connect 5 0 4 1;
#X connect 6 0 5 0;
#X connect 7 0 6 0;
#X connect 8 1 10 0;
#X connect 8 2 11 0;
#X connect 8 3 12 0;
#X connect 8 4 13 0;
#X connect 8 5 14 0;
#X connect 8 6 15 0;
#X connect 9 0 8 0;
#X connect 9 0 92 0;
#X connect 9 0 93 0;
#X connect 9 0 112 0;
#X connect 10 0 16 0;
#X connect 11 0 16 0;
#X connect 11 0 17 0;
#X connect 12 0 17 0;
#X connect 12 0 18 0;
#X connect 13 0 18 0;
#X connect 13 0 19 0;
#X connect 14 0 19 0;
#X connect 14 0 20 0;
#X connect 15 0 20 0;
#X connect 16 0 1 1;
#X connect 17 0 5 1;
#X connect 18 0 22 1;
#X connect 19 0 26 1;
#X connect 20 0 30 1;
#X connect 22 0 21 0;
#X connect 22 0 21 1;
#X connect 23 0 22 0;
#X connect 24 0 23 0;
#X connect 26 0 25 0;
#X connect 26 0 25 1;
#X connect 27 0 26 0;
#X connect 28 0 27 0;
#X connect 30 0 29 0;
#X connect 30 0 29 1;
#X connect 31 0 30 0;
#X connect 32 0 31 0;
#X connect 33 0 46 0;
#X connect 34 0 33 0;
#X connect 35 0 91 0;
#X connect 38 0 46 1;
#X connect 40 0 46 2;
#X connect 42 0 46 3;
#X connect 44 0 33 1;
#X connect 45 0 46 4;
#X connect 46 0 35 0;
#X connect 48 0 49 0;
#X connect 48 0 50 0;
#X connect 48 0 51 0;
#X connect 48 0 53 0;
#X connect 48 0 52 0;
#X connect 49 0 3 0;
#X connect 50 0 7 0;
#X connect 51 0 24 0;
#X connect 52 0 28 0;
#X connect 53 0 32 0;
#X connect 55 0 54 0;
#X connect 55 0 54 1;
#X connect 56 0 55 0;
#X connect 57 0 56 0;
#X connect 59 0 58 0;
#X connect 59 0 58 1;
#X connect 60 0 59 0;
#X connect 61 0 60 0;
#X connect 62 0 68 0;
#X connect 63 0 68 0;
#X connect 63 0 69 0;
#X connect 64 0 69 0;
#X connect 64 0 70 0;
#X connect 65 0 70 0;
#X connect 65 0 71 0;
#X connect 66 0 71 0;
#X connect 66 0 72 0;
#X connect 67 0 72 0;
#X connect 68 0 55 1;
#X connect 69 0 59 1;
#X connect 70 0 74 1;
#X connect 71 0 78 1;
#X connect 72 0 82 1;
#X connect 74 0 73 0;
#X connect 74 0 73 1;
#X connect 75 0 74 0;
#X connect 76 0 75 0;
#X connect 78 0 77 0;
#X connect 78 0 77 1;
#X connect 79 0 78 0;
#X connect 80 0 79 0;
#X connect 82 0 81 0;
#X connect 82 0 81 1;
#X connect 83 0 82 0;
#X connect 84 0 83 0;
#X connect 85 0 86 0;
#X connect 85 0 87 0;
#X connect 85 0 88 0;
#X connect 85 0 90 0;
#X connect 85 0 89 0;
#X connect 86 0 57 0;
#X connect 87 0 61 0;
#X connect 88 0 76 0;
#X connect 89 0 80 0;
#X connect 90 0 84 0;
#X connect 91 0 9 0;
#X connect 92 1 62 0;
#X connect 92 2 63 0;
#X connect 92 3 64 0;
#X connect 92 4 65 0;
#X connect 92 5 66 0;
#X connect 92 6 67 0;
#X connect 93 1 94 0;
#X connect 93 2 95 0;
#X connect 93 3 96 0;
#X connect 93 4 97 0;
#X connect 93 5 98 0;
#X connect 93 6 99 0;
#X connect 94 0 100 0;
#X connect 95 0 101 0;
#X connect 96 0 102 0;
#X connect 97 0 103 0;
#X connect 98 0 104 0;
#X connect 99 0 105 0;
#X connect 100 0 106 0;
#X connect 101 0 107 0;
#X connect 102 0 108 0;
#X connect 103 0 109 0;
#X connect 104 0 110 0;
#X connect 105 0 111 0;
